<?xml version="1.0"?><svg xmlns="http://www.w3.org/2000/svg"  viewBox="0 0 24 24" width="384px" height="384px">    <path d="M 5.984375 2.9863281 A 1.0001 1.0001 0 0 0 5 4 L 5 6 L 3.8789062 6 C 3.4269062 6 3.1995313 6.5462344 3.5195312 6.8652344 L 5.4082031 8.7558594 C 5.7352031 9.0828594 6.2647969 9.0828594 6.5917969 8.7558594 L 8.4804688 6.8652344 C 8.8004688 6.5462344 8.5720938 6 8.1210938 6 L 7 6 L 7 4 A 1.0001 1.0001 0 0 0 5.984375 2.9863281 z M 18 5 A 2 2 0 0 0 16 7 A 2 2 0 0 0 18 9 A 2 2 0 0 0 20 7 A 2 2 0 0 0 18 5 z M 12 8 A 2 2 0 0 0 10 10 A 2 2 0 0 0 12 12 A 2 2 0 0 0 14 10 A 2 2 0 0 0 12 8 z M 6 11 A 2 2 0 0 0 4 13 A 2 2 0 0 0 6 15 A 2 2 0 0 0 8 13 A 2 2 0 0 0 6 11 z M 18 11 C 16.925 11 14.989391 11.468703 14.275391 12.345703 C 15.753391 12.762703 17.296406 13.59 17.816406 15 L 21 15 C 21.552 15 22 14.552 22 14 L 22 13.050781 C 22 11.720781 19.335 11 18 11 z M 12 14 C 10.925 14 8.9893906 14.468703 8.2753906 15.345703 C 9.7533906 15.762703 11.296406 16.59 11.816406 18 L 15 18 C 15.552 18 16 17.552 16 17 L 16 16.050781 C 16 14.720781 13.335 14 12 14 z M 6 17 C 4.665 17 2 17.720781 2 19.050781 L 2 20 C 2 20.552 2.448 21 3 21 L 9 21 C 9.552 21 10 20.552 10 20 L 10 19.050781 C 10 17.720781 7.335 17 6 17 z"/></svg>